<?xml version="1.0" encoding="UTF-8"?>
<svg version="1.1" xmlns="http://www.w3.org/2000/svg" width="120" height="75">
<path d="M0 0 C1.01707031 -0.05414063 2.03414062 -0.10828125 3.08203125 -0.1640625 C11.21435467 -0.31021465 15.17582698 1.99787307 21 7.5 C21.85851563 8.17289063 22.71703125 8.84578125 23.6015625 9.5390625 C24.26929688 10.06242187 24.93703125 10.58578125 25.625 11.125 C28.38236141 13.28146015 31.17642753 15.33231748 34.0625 17.3125 C35.5165625 18.3953125 35.5165625 18.3953125 37 19.5 C37 20.16 37 20.82 37 21.5 C37.66 21.70625 38.32 21.9125 39 22.125 C43.07180186 23.99124252 46.68796998 26.47561527 50 29.5 C50 30.16 50 30.82 50 31.5 C50.66 31.5 51.32 31.5 52 31.5 C51.855625 32.24765625 51.71125 32.9953125 51.5625 33.765625 C51.2840625 35.24289063 51.2840625 35.24289063 51 36.75 C50.7215625 38.21179687 50.7215625 38.21179687 50.4375 39.703125 C49.89696983 42.68684279 49.89696983 42.68684279 50 46.5 C50.88042969 45.80132812 51.76085937 45.10265625 52.66796875 44.3828125 C53.8409031 43.46323197 55.01409378 42.54397833 56.1875 41.625 C56.76564453 41.16480469 57.34378906 40.70460937 57.93945312 40.23046875 C61.16966649 37.71199731 64.0554821 35.79255389 68 34.5 C67.42547774 31.33693816 66.60920166 29.75324244 64.27734375 27.5546875 C63.73916016 27.03519531 63.20097656 26.51570313 62.64648438 25.98046875 C62.08251953 25.45066406 61.51855469 24.92085937 60.9375 24.375 C58.90735136 22.45315668 56.94444769 20.51190213 55 18.5 C55 17.84 55 17.18 55 16.5 C54.360625 16.231875 53.72125 15.96375 53.0625 15.6875 C51 14.5 51 14.5 50 11.5 C49.01 11.005 49.01 11.005 48 10.5 C46 9.5 46 9.5 45 6.5 C44.01 6.0359375 44.01 6.0359375 43 5.5625 C42.34 5.211875 41.68 4.86125 41 4.5 C40.505 2.52 40.505 2.52 40 0.5 C52.54 0.5 65.08 0.5 78 0.5 C77 12.5 77 12.5 76 17.5 C77.60204619 19.68712805 77.60204619 19.68712805 80 21.5 C80.82371094 22.180625 81.64742188 22.86125 82.49609375 23.5625 C85.60911601 25.97132846 88.7461421 28.28460738 92 30.5 C91.63967296 33.22367043 91.19424211 34.31824561 89.15820312 36.22338867 C87.98161133 37.06220581 87.98161133 37.06220581 86.78125 37.91796875 C85.50701172 38.83932617 85.50701172 38.83932617 84.20703125 39.77929688 C83.31371094 40.40900391 82.42039062 41.03871094 81.5 41.6875 C79.7393314 42.95147205 77.97890173 44.21577703 76.21875 45.48046875 C75.43435547 46.03629639 74.64996094 46.59212402 73.84179688 47.16479492 C70.75056976 49.40577068 70.68663779 50.72349214 70 54.5 C69.11111111 59.38888889 69.11111111 59.38888889 68 60.5 C60.76041168 61.37511507 54.59302915 61.72019177 48.625 57.125 C46.4765625 55.2265625 46.4765625 55.2265625 45 53.5 C45 52.84 45 52.18 45 51.5 C44.2884375 51.2628125 43.576875 51.025625 42.84375 50.78125 C39.51851679 49.283068 37.25340143 47.39031553 34.5 45 C30.04749932 41.18951074 25.5238667 37.50632696 20.875 33.9375 C20.31876953 33.50824219 19.76253906 33.07898437 19.18945312 32.63671875 C16.22461182 30.36647836 16.22461182 30.36647836 13 28.5 C13 27.84 13 27.18 13 26.5 C12.21625 26.21125 11.4325 25.9225 10.625 25.625 C8 24.5 8 24.5 6 22.5 C5.2041523 26.24912484 4.41412192 29.99945424 3.625 33.75 C3.40328125 34.79414062 3.1815625 35.83828125 2.953125 36.9140625 C1.61328352 43.2980131 0.43648956 49.68059186 -0.55712891 56.12792969 C-1 58.5 -1 58.5 -2 60.5 C-8.6 60.5 -15.2 60.5 -22 60.5 C-22 54.62220883 -21.67726345 50.05640763 -20.375 44.5 C-18.94007056 38.08054368 -17.62983106 31.64736912 -16.43359375 25.1796875 C-16.29971252 24.45622131 -16.1658313 23.73275513 -16.02789307 22.98736572 C-15.4856463 20.04838336 -14.94571108 17.10901115 -14.41204834 14.16845703 C-14.03436155 12.08827622 -13.65219619 10.00895728 -13.26953125 7.9296875 C-13.04885986 6.71522949 -12.82818848 5.50077148 -12.60083008 4.24951172 C-11.30107088 -1.69843144 -5.1687226 0.11443666 0 0 Z " fill="#EEEEEE" transform="translate(25,8.5)"/>
<path d="M0 0 C12.54 0 25.08 0 38 0 C37 12 37 12 35 15 C35.495 8.565 35.495 8.565 36 2 C20.16 2.495 20.16 2.495 4 3 C4.33 3.99 4.66 4.98 5 6 C3.0625 5.25 3.0625 5.25 1 4 C0.67 2.68 0.34 1.36 0 0 Z " fill="#919191" transform="translate(65,9)"/>
<path d="M0 0 C1.60101562 -0.0309375 1.60101562 -0.0309375 3.234375 -0.0625 C4.25789063 -0.06765625 5.28140625 -0.0728125 6.3359375 -0.078125 C7.27743652 -0.0874707 8.21893555 -0.09681641 9.18896484 -0.10644531 C11.625 0.25 11.625 0.25 14.625 3.25 C6.375 2.92 -1.875 2.59 -10.375 2.25 C-10.705 3.9 -11.035 5.55 -11.375 7.25 C-11.705 7.25 -12.035 7.25 -12.375 7.25 C-12.41754356 5.25045254 -12.41580783 3.24958364 -12.375 1.25 C-9.89530495 -1.22969505 -3.33112803 0.01597663 0 0 Z " fill="#979797" transform="translate(25.375,8.75)"/>
</svg>
